<?xml version="1.0" encoding="UTF-8"?>
<svg xmlns="http://www.w3.org/2000/svg" viewBox="0 0 24 24" width="24" height="24">
  <path d="M12 2C6.48 2 2 6.48 2 12s4.48 10 10 10 10-4.48 10-10S17.52 2 12 2zm4.603 14.5c-.184.307-.582.398-.889.214-2.45-1.496-5.527-1.834-9.145-1.006-.345.08-.689-.133-.768-.477-.08-.344.132-.689.477-.768 3.976-.917 7.396-.53 10.11 1.148.307.184.398.582.215.889zm1.223-2.722c-.23.371-.73.482-1.102.253-2.805-1.723-7.08-2.223-10.393-1.216-.43.13-.885-.112-1.015-.542-.13-.43.112-.885.542-1.015 3.79-1.15 8.5-.592 11.715 1.418.371.23.482.73.253 1.102zm.105-2.835c-3.366-2-8.918-2.183-12.135-1.208-.517.158-1.063-.13-1.22-.647-.158-.517.13-1.063.647-1.22C9.575 7.027 15.718 7.24 19.7 9.593c.546.324.726 1.03.402 1.575-.323.546-1.03.726-1.575.402z" fill="#1DB954"/>
</svg>
