<svg xmlns="http://www.w3.org/2000/svg" width="107" height="99" fill="currentColor" viewBox="0 0 107 99">
  <g clip-path="url(#a)">
    <path fill="#4F46E5" fill-opacity=".8" fill-rule="evenodd" d="M53.5 99c26.848 0 40-21.682 40-48.428 0-6.935 2.439-14.26 4.722-21.117C104.743 9.87 109.993-5.895 53.5 2.145-3.207 10.215-.743 17.125 4.252 31.13 5.976 35.963 8 41.64 8 48.5 8 75.246 26.652 99 53.5 99ZM33.664 75.395a10 10 0 0 0 9.715 7.67l28.704.025a8.976 8.976 0 0 0 7.882-4.666c3.634-6.642-2.08-14.522-9.522-13.132l-9.957 1.86c-6.094 1.138-11.745-3.486-11.835-9.685l-.497-34.337c-.084-5.762-5.008-10.262-10.755-9.826l-2.588.196-4.46.576c-5.897.76-9.831 6.466-8.446 12.248l11.759 49.071Z" clip-rule="evenodd"/>
  </g>
  <defs>
    <clipPath id="a">
      <path fill="#fff" d="M0 0h107v99H0z"/>
    </clipPath>
  </defs>
</svg>